<?xml version="1.0"?>
<svg xmlns="http://www.w3.org/2000/svg" id="filled_outline" data-name="filled outline" viewBox="0 0 512 512" width="512" height="512"><path d="M472,296v16L336,352H96L56,304,80,176H96l4.07007,6.10986A40.1726,40.1726,0,0,0,133.5,200H160l32-64h24l80,104,92.87988,26.8999A66.037,66.037,0,0,0,426.78,265.74a33.945,33.945,0,0,1,43.6499,23.96Z" style="fill:#ffc431"/><polygon points="240 224 240 352 96 352 56 304 62 272 120 272 224 216 240 224" style="fill:#ffd873"/><path d="M53.35322,304H112l56,40,72-32H392l80-16h16v24L376,392H24l13.6113-74.86217A16,16,0,0,1,53.35322,304Z" style="fill:#d1e4ff"/><polygon points="488 216 328 216 288 168 328 120 488 120 488 216" style="fill:#548aff"/><path d="M488,112H328a7.99862,7.99862,0,0,0-6.14551,2.87891L284.25366,160h-39.699l-22.21387-28.87793A8.00015,8.00015,0,0,0,216,128H192a8.00022,8.00022,0,0,0-7.15527,4.42188L155.05566,192H133.50488a32.11887,32.11887,0,0,1-26.77734-14.33008l-4.07129-6.10742A7.99943,7.99943,0,0,0,96,168H80a8.00111,8.00111,0,0,0-7.86328,6.52539L49.29443,296.35132A23.98487,23.98487,0,0,0,29.74023,315.707L16.12891,390.56934A8.00064,8.00064,0,0,0,24,400H376a8.00269,8.00269,0,0,0,4.32617-1.27051l112-72A7.99953,7.99953,0,0,0,496,320V296a8.00039,8.00039,0,0,0-8-8h-9.75391l-.05957-.23828a41.93385,41.93385,0,0,0-53.94043-29.61035,57.89023,57.89023,0,0,1-33.22949,1.04l-90.27344-26.14649L256.8623,176h27.39136l37.60083,45.12109A7.99862,7.99862,0,0,0,328,224H488a8.00039,8.00039,0,0,0,8-8V120A8.00039,8.00039,0,0,0,488,112ZM232,306.801l-63.07031,28.031-52.2793-37.3418A8.00671,8.00671,0,0,0,112,296H65.63965l3-16H120a7.99757,7.99757,0,0,0,3.793-.95605L224.13672,225.0127,232,228.94434Zm248,8.83178L373.65039,384H33.58594l11.89648-65.43164A7.99558,7.99558,0,0,1,53.35352,312h56.083l53.91309,38.50977a8.00418,8.00418,0,0,0,7.89941.80078L241.69727,320H392a7.9929,7.9929,0,0,0,1.56934-.15527L472.792,304H480ZM289.65918,244.87793a7.99824,7.99824,0,0,0,4.11523,2.80664l92.877,26.90039c.05468.01563.10937.03027.16406.04492a73.82724,73.82724,0,0,0,42.49121-1.29883,25.91862,25.91862,0,0,1,32.81885,16.48536L391.208,304H248V224a8.00022,8.00022,0,0,0-4.42188-7.15527l-16-8a8.00459,8.00459,0,0,0-7.37109.11132L117.9834,264H71.63965l15-80h5.0791l1.69629,2.54492A48.08492,48.08492,0,0,0,133.50488,208H160a8.00022,8.00022,0,0,0,7.15527-4.42188L196.94434,144h15.11621l12.30761,16H208a8,8,0,0,0,0,16h28.676ZM480,208H376V192H360v16H331.74707l-26.6665-32H328a8,8,0,0,0,0-16H305.08057l26.6665-32H360v16h16V128H480Z"/><circle cx="416" cy="152" r="8"/><circle cx="456" cy="184" r="8"/><rect x="404.759" y="160.00045" width="62.482" height="15.99911" transform="translate(27.81843 395.3935) rotate(-50.19443)"/><rect x="360" y="160" width="16" height="16"/></svg>
