<?xml version="1.0" encoding="UTF-8"?>
<svg xmlns="http://www.w3.org/2000/svg" xmlns:xlink="http://www.w3.org/1999/xlink" width="70pt" height="70pt" viewBox="0 0 70 70" version="1.1">
<g id="surface1">
<path style=" stroke:none;fill-rule:nonzero;fill:rgb(100%,76.862745%,19.215686%);fill-opacity:1;" d="M 64.53125 40.46875 L 64.53125 42.65625 L 45.9375 48.125 L 13.125 48.125 L 7.65625 41.5625 L 10.9375 24.0625 L 13.125 24.0625 L 13.679688 24.898438 C 14.699219 26.425781 16.414062 27.34375 18.25 27.34375 L 21.875 27.34375 L 26.25 18.59375 L 29.53125 18.59375 L 40.46875 32.8125 L 53.167969 36.488281 C 54.871094 36.945312 56.675781 36.890625 58.347656 36.332031 C 59.574219 35.921875 60.914062 36.046875 62.046875 36.667969 C 63.179688 37.289062 64.003906 38.355469 64.316406 39.609375 Z M 64.53125 40.46875 "/>
<path style=" stroke:none;fill-rule:nonzero;fill:rgb(100%,84.705882%,45.098039%);fill-opacity:1;" d="M 32.8125 30.625 L 32.8125 48.125 L 13.125 48.125 L 7.65625 41.5625 L 8.476562 37.1875 L 16.40625 37.1875 L 30.625 29.53125 Z M 32.8125 30.625 "/>
<path style=" stroke:none;fill-rule:nonzero;fill:rgb(81.960784%,89.411765%,100%);fill-opacity:1;" d="M 7.292969 41.5625 L 15.3125 41.5625 L 22.96875 47.03125 L 32.8125 42.65625 L 53.59375 42.65625 L 64.53125 40.46875 L 66.71875 40.46875 L 66.71875 43.75 L 51.40625 53.59375 L 3.28125 53.59375 L 5.140625 43.359375 C 5.332031 42.320312 6.238281 41.5625 7.292969 41.5625 Z M 7.292969 41.5625 "/>
<path style=" stroke:none;fill-rule:nonzero;fill:rgb(32.941176%,54.117647%,100%);fill-opacity:1;" d="M 66.71875 29.53125 L 44.84375 29.53125 L 39.375 22.96875 L 44.84375 16.40625 L 66.71875 16.40625 Z M 66.71875 29.53125 "/>
<path style=" stroke:none;fill-rule:nonzero;fill:rgb(0%,0%,0%);fill-opacity:1;" d="M 66.71875 15.3125 L 44.84375 15.3125 C 44.519531 15.3125 44.210938 15.457031 44.003906 15.707031 L 38.863281 21.875 L 33.433594 21.875 L 30.398438 17.925781 C 30.191406 17.65625 29.871094 17.5 29.53125 17.5 L 26.25 17.5 C 25.835938 17.5 25.457031 17.734375 25.273438 18.105469 L 21.199219 26.25 L 18.253906 26.25 C 16.78125 26.25 15.40625 25.515625 14.589844 24.289062 L 14.035156 23.457031 C 13.832031 23.152344 13.492188 22.96875 13.125 22.96875 L 10.9375 22.96875 C 10.410156 22.96875 9.960938 23.34375 9.863281 23.859375 L 6.738281 40.515625 C 5.378906 40.75 4.3125 41.808594 4.066406 43.164062 L 2.207031 53.398438 C 2.148438 53.71875 2.234375 54.046875 2.441406 54.292969 C 2.648438 54.542969 2.957031 54.6875 3.28125 54.6875 L 51.40625 54.6875 C 51.617188 54.6875 51.820312 54.628906 51.996094 54.515625 L 67.308594 44.671875 C 67.625 44.46875 67.8125 44.121094 67.8125 43.75 L 67.8125 40.46875 C 67.8125 39.863281 67.324219 39.375 66.71875 39.375 L 65.386719 39.375 L 65.378906 39.34375 C 64.988281 37.792969 63.972656 36.476562 62.574219 35.707031 C 61.175781 34.9375 59.515625 34.789062 58.003906 35.292969 C 56.535156 35.785156 54.953125 35.835938 53.460938 35.4375 L 41.117188 31.863281 L 35.117188 24.0625 L 38.863281 24.0625 L 44.003906 30.230469 C 44.210938 30.480469 44.519531 30.625 44.84375 30.625 L 66.71875 30.625 C 67.324219 30.625 67.8125 30.136719 67.8125 29.53125 L 67.8125 16.40625 C 67.8125 15.800781 67.324219 15.3125 66.71875 15.3125 Z M 31.71875 41.945312 L 23.097656 45.777344 L 15.949219 40.671875 C 15.761719 40.539062 15.539062 40.46875 15.3125 40.46875 L 8.972656 40.46875 L 9.382812 38.28125 L 16.40625 38.28125 C 16.585938 38.28125 16.765625 38.238281 16.925781 38.152344 L 30.644531 30.761719 L 31.71875 31.300781 Z M 65.625 43.152344 L 51.085938 52.5 L 4.59375 52.5 L 6.21875 43.554688 C 6.3125 43.035156 6.765625 42.65625 7.292969 42.65625 L 14.960938 42.65625 L 22.332031 47.921875 C 22.648438 48.144531 23.058594 48.1875 23.414062 48.03125 L 33.042969 43.75 L 53.59375 43.75 C 53.664062 43.75 53.738281 43.742188 53.808594 43.730469 L 64.640625 41.5625 L 65.625 41.5625 Z M 39.601562 33.480469 C 39.742188 33.664062 39.941406 33.796875 40.164062 33.863281 L 52.863281 37.539062 C 52.871094 37.542969 52.878906 37.546875 52.886719 37.546875 C 54.796875 38.058594 56.816406 37.996094 58.695312 37.371094 C 59.589844 37.070312 60.5625 37.140625 61.40625 37.566406 C 62.246094 37.988281 62.886719 38.726562 63.179688 39.625 L 53.484375 41.5625 L 33.90625 41.5625 L 33.90625 30.625 C 33.90625 30.210938 33.671875 29.832031 33.300781 29.648438 L 31.113281 28.554688 C 30.796875 28.394531 30.417969 28.398438 30.105469 28.566406 L 16.128906 36.09375 L 9.792969 36.09375 L 11.84375 25.15625 L 12.539062 25.15625 L 12.773438 25.503906 C 13.992188 27.339844 16.050781 28.441406 18.253906 28.4375 L 21.875 28.4375 C 22.289062 28.4375 22.667969 28.203125 22.851562 27.832031 L 26.925781 19.6875 L 28.992188 19.6875 L 30.675781 21.875 L 28.4375 21.875 C 27.832031 21.875 27.34375 22.363281 27.34375 22.96875 C 27.34375 23.574219 27.832031 24.0625 28.4375 24.0625 L 32.359375 24.0625 Z M 65.625 28.4375 L 51.40625 28.4375 L 51.40625 26.25 L 49.21875 26.25 L 49.21875 28.4375 L 45.355469 28.4375 L 41.710938 24.0625 L 44.84375 24.0625 C 45.449219 24.0625 45.9375 23.574219 45.9375 22.96875 C 45.9375 22.363281 45.449219 21.875 44.84375 21.875 L 41.710938 21.875 L 45.355469 17.5 L 49.21875 17.5 L 49.21875 19.6875 L 51.40625 19.6875 L 51.40625 17.5 L 65.625 17.5 Z M 65.625 28.4375 "/>
<path style=" stroke:none;fill-rule:nonzero;fill:rgb(0%,0%,0%);fill-opacity:1;" d="M 57.96875 20.78125 C 57.96875 21.386719 57.480469 21.875 56.875 21.875 C 56.269531 21.875 55.78125 21.386719 55.78125 20.78125 C 55.78125 20.175781 56.269531 19.6875 56.875 19.6875 C 57.480469 19.6875 57.96875 20.175781 57.96875 20.78125 Z M 57.96875 20.78125 "/>
<path style=" stroke:none;fill-rule:nonzero;fill:rgb(0%,0%,0%);fill-opacity:1;" d="M 63.4375 25.15625 C 63.4375 25.761719 62.949219 26.25 62.34375 26.25 C 61.738281 26.25 61.25 25.761719 61.25 25.15625 C 61.25 24.550781 61.738281 24.0625 62.34375 24.0625 C 62.949219 24.0625 63.4375 24.550781 63.4375 25.15625 Z M 63.4375 25.15625 "/>
<path style=" stroke:none;fill-rule:nonzero;fill:rgb(0%,0%,0%);fill-opacity:1;" d="M 56.035156 25.550781 L 61.503906 18.988281 L 63.183594 20.386719 L 57.714844 26.949219 Z M 56.035156 25.550781 "/>
<path style=" stroke:none;fill-rule:nonzero;fill:rgb(0%,0%,0%);fill-opacity:1;" d="M 49.21875 21.875 L 51.40625 21.875 L 51.40625 24.0625 L 49.21875 24.0625 Z M 49.21875 21.875 "/>
</g>
</svg>
